<svg width="1200" height="860" viewBox="0 0 1200 860" fill="none" xmlns="http://www.w3.org/2000/svg">
  <rect width="1200" height="860" rx="48" fill="#E9EFEC"/>
  <rect x="0" y="0" width="1200" height="860" fill="url(#paint0_linear)"/>
  <ellipse cx="600" cy="110" rx="388" ry="132" fill="#F7FAF8" fill-opacity="0.92"/>
  <ellipse cx="600" cy="160" rx="470" ry="188" fill="#F1F5F2" fill-opacity="0.72"/>
  <path d="M0 542C150 486 320 450 506 450C728 450 936 496 1200 610V860H0V542Z" fill="url(#paint1_linear)"/>
  <path d="M0 626C196 574 354 552 548 552C778 552 972 606 1200 706V860H0V626Z" fill="url(#paint2_linear)"/>
  <rect x="212" y="600" width="258" height="112" rx="28" fill="#C4D4B0"/>
  <rect x="756" y="608" width="274" height="120" rx="32" fill="#B7CAA0"/>
  <rect x="318" y="282" width="564" height="326" rx="68" fill="#FCFDFD"/>
  <path d="M246 378L600 178L954 378H246Z" fill="#FCFDFD"/>
  <path d="M422 602V366C422 336 446 312 476 312H724C754 312 778 336 778 366V602" fill="#FCFDFD"/>
  <rect x="486" y="396" width="86" height="96" rx="20" fill="#D9E4C3"/>
  <rect x="628" y="396" width="86" height="96" rx="20" fill="#D9E4C3"/>
  <rect x="560" y="474" width="82" height="128" rx="28" fill="#E6D1C0"/>
  <path d="M516 176V104C516 90 528 78 542 78H592C606 78 618 90 618 104V236" stroke="#82B43D" stroke-width="20" stroke-linecap="round" stroke-linejoin="round"/>
  <path d="M240 384L600 138L960 384" stroke="#82B43D" stroke-width="20" stroke-linecap="round" stroke-linejoin="round" opacity="0.18"/>
  <rect x="360" y="668" width="480" height="26" rx="13" fill="#ECF2EE"/>
  <rect x="402" y="714" width="396" height="16" rx="8" fill="#F7FAF8"/>
  <rect x="226" y="640" width="186" height="18" rx="9" fill="#9EB281" fill-opacity="0.28"/>
  <rect x="810" y="648" width="190" height="18" rx="9" fill="#90A86F" fill-opacity="0.28"/>
  <defs>
    <linearGradient id="paint0_linear" x1="600" y1="0" x2="600" y2="860" gradientUnits="userSpaceOnUse">
      <stop stop-color="#F7FAF8"/>
      <stop offset="0.58" stop-color="#E8EEE9"/>
      <stop offset="1" stop-color="#DCE6E1"/>
    </linearGradient>
    <linearGradient id="paint1_linear" x1="600" y1="450" x2="600" y2="860" gradientUnits="userSpaceOnUse">
      <stop stop-color="#D4E1C3"/>
      <stop offset="1" stop-color="#BACEA8"/>
    </linearGradient>
    <linearGradient id="paint2_linear" x1="600" y1="552" x2="600" y2="860" gradientUnits="userSpaceOnUse">
      <stop stop-color="#C4D5B0"/>
      <stop offset="1" stop-color="#A8BD8B"/>
    </linearGradient>
  </defs>
</svg>
