<svg width="960" height="640" viewBox="0 0 960 640" fill="none" xmlns="http://www.w3.org/2000/svg">
  <rect width="960" height="640" rx="36" fill="#DEE7E2"/>
  <rect x="28" y="28" width="904" height="584" rx="30" fill="url(#paint0_linear)"/>
  <rect x="28" y="402" width="904" height="210" rx="30" fill="url(#paint1_linear)"/>
  <rect x="322" y="230" width="316" height="236" rx="36" fill="#FCFDFC"/>
  <path d="M274 254L480 136L686 254H274Z" fill="#FCFDFC"/>
  <rect x="378" y="284" width="56" height="66" rx="14" fill="#DCE7CB"/>
  <rect x="526" y="284" width="56" height="66" rx="14" fill="#DCE7CB"/>
  <rect x="450" y="372" width="60" height="94" rx="18" fill="#E7D2C1"/>
  <rect x="82" y="102" width="180" height="20" rx="10" fill="#21322D" fill-opacity="0.08"/>
  <rect x="706" y="102" width="142" height="20" rx="10" fill="#21322D" fill-opacity="0.08"/>
  <rect x="322" y="488" width="316" height="18" rx="9" fill="#F2F6F4"/>
  <rect x="338" y="520" width="284" height="12" rx="6" fill="#E6EEEA"/>
  <defs>
    <linearGradient id="paint0_linear" x1="480" y1="28" x2="480" y2="430" gradientUnits="userSpaceOnUse">
      <stop stop-color="#F9FBFA"/>
      <stop offset="1" stop-color="#E4ECE8"/>
    </linearGradient>
    <linearGradient id="paint1_linear" x1="480" y1="402" x2="480" y2="612" gradientUnits="userSpaceOnUse">
      <stop stop-color="#C9DAB7"/>
      <stop offset="1" stop-color="#ABC08E"/>
    </linearGradient>
  </defs>
</svg>
