<svg width="620" height="160" viewBox="0 0 620 160" fill="none" xmlns="http://www.w3.org/2000/svg">
  <defs>
    <linearGradient id="sb_word_grad" x1="16" y1="16" x2="144" y2="144" gradientUnits="userSpaceOnUse">
      <stop stop-color="#9CD65B" />
      <stop offset="1" stop-color="#5F9918" />
    </linearGradient>
  </defs>
  <rect x="8" y="8" width="144" height="144" rx="34" fill="url(#sb_word_grad)" />
  <path
    d="M48 52C48 43.1634 55.1634 36 64 36H100C108.837 36 116 43.1634 116 52C116 60.8366 108.837 68 100 68H64C61.7909 68 60 69.7909 60 72C60 74.2091 61.7909 76 64 76H96C106.493 76 115 84.5066 115 95C115 105.493 106.493 114 96 114H61C54.3726 114 49 108.627 49 102C49 95.3726 54.3726 90 61 90H96C98.7614 90 101 87.7614 101 85C101 82.2386 98.7614 80 96 80H64C55.1634 80 48 72.8366 48 64V52Z"
    fill="white"
  />
  <text x="178" y="103" fill="#1F2933" font-family="Inter, Segoe UI, Arial, sans-serif" font-size="66" font-weight="700" letter-spacing="-1.2">
    ServiceButler
  </text>
</svg>
