<svg version="1.1" id="Layer_1" xmlns="http://www.w3.org/2000/svg" xmlns:xlink="http://www.w3.org/1999/xlink" x="0px" y="0px"
	 width="100%" viewBox="0 0 1228 938" enable-background="new 0 0 1228 938" xml:space="preserve">
<path fill="#FEFEFE" opacity="1.000000" stroke="none" 
	d="
M827.000000,939.000000 
	C551.365051,939.000000 276.230072,939.000000 1.047555,939.000000 
	C1.047555,626.401062 1.047555,313.802124 1.047555,1.101592 
	C410.218414,1.101592 819.436829,1.101592 1228.827637,1.101592 
	C1228.827637,313.666595 1228.827637,626.333313 1228.827637,939.000000 
	C1095.135132,939.000000 961.317566,939.000000 827.000000,939.000000 
M884.838135,358.668976 
	C867.867432,343.691620 850.912659,328.696136 833.922607,313.740753 
	C801.681274,285.360718 769.395203,257.031494 737.174927,228.627594 
	C713.698730,207.932053 690.370361,187.068329 666.833008,166.442764 
	C655.446411,156.464798 641.517334,156.676666 630.186768,166.757736 
	C616.380310,179.041702 602.718689,191.488495 588.978210,203.846863 
	C582.602722,209.581055 576.188965,215.272705 568.862183,221.814377 
	C568.731384,218.985764 568.613831,217.417282 568.593567,215.847565 
	C568.472961,206.522369 568.797058,197.168823 568.179626,187.877457 
	C566.971680,169.701279 551.819580,155.333511 533.511841,154.971344 
	C517.523010,154.655075 501.518311,154.632385 485.529663,154.944046 
	C465.872101,155.327209 450.060028,170.663925 449.886902,190.295273 
	C449.510895,232.936066 449.644165,275.582642 449.839081,318.225616 
	C449.865631,324.035095 448.327148,327.999146 443.756195,331.886505 
	C426.635834,346.446228 409.795746,361.346771 393.156464,376.456329 
	C383.886810,384.873810 383.792358,399.504913 392.279633,408.353790 
	C400.627197,417.057129 414.569672,417.106476 423.759033,408.492615 
	C428.980591,403.598053 434.146820,398.638824 439.498291,393.889404 
	C466.388794,370.024506 493.257263,346.133820 520.274414,322.412811 
	C561.804199,285.949738 603.468506,249.639755 644.999939,213.178543 
	C647.701477,210.806808 649.529968,210.734497 652.188721,213.154648 
	C660.313843,220.550369 668.626099,227.741058 676.888550,234.985321 
	C711.436035,265.275635 746.025330,295.518280 780.534790,325.851898 
	C811.794067,353.328644 842.993103,380.874115 874.163269,408.451935 
	C880.830994,414.351227 888.469543,416.360352 896.883240,414.007660 
	C912.473206,409.648224 917.795654,389.200012 906.256653,377.728516 
	C899.656372,371.166931 892.377686,365.287872 884.838135,358.668976 
M449.507263,495.499878 
	C449.505066,530.489624 449.392822,565.479736 449.535431,600.468933 
	C449.650269,628.637085 467.134186,645.983154 495.219971,645.992737 
	C575.528992,646.020020 655.838013,645.987915 736.147034,645.975281 
	C759.140015,645.971680 782.133057,645.966309 805.126038,645.940430 
	C821.321289,645.922241 833.404297,638.591003 842.210144,625.235413 
	C847.505615,617.203918 848.626526,608.193848 848.639771,598.970764 
	C848.714417,546.986511 848.449585,495.000061 848.899170,443.019531 
	C848.983337,433.284882 847.574890,425.576569 838.701965,420.267670 
	C835.473083,418.335724 832.950745,415.241852 830.039062,412.756561 
	C825.163391,408.594818 819.719666,407.583740 813.766174,410.146362 
	C807.856445,412.690155 805.496704,417.552521 805.215576,423.664520 
	C805.116150,425.826141 805.184570,427.995758 805.186951,430.161743 
	C805.248108,485.311676 805.262939,540.461792 805.462708,595.611267 
	C805.478943,600.091187 804.382812,601.614441 799.670715,601.587280 
	C767.685852,601.403076 735.699219,601.489380 703.713196,601.526855 
	C634.903320,601.607361 566.093262,601.669067 497.283813,601.900879 
	C492.738434,601.916199 492.661133,599.760315 492.666016,596.393677 
	C492.746552,540.577515 492.753418,484.761322 492.772491,428.945099 
	C492.773224,426.779358 492.833313,424.606781 492.688812,422.449219 
	C492.278534,416.321838 488.867126,412.164764 483.432922,409.896576 
	C478.535645,407.852448 473.651886,408.242126 469.412720,411.903931 
	C463.871613,416.690430 458.150146,421.292725 452.910400,426.389740 
	C451.135254,428.116577 449.656647,431.094604 449.626923,433.520294 
	C449.377777,453.844238 449.497711,474.172699 449.507263,495.499878 
M322.377716,811.355774 
	C318.711823,811.351379 315.038605,811.494629 311.381500,811.313171 
	C302.698486,810.882385 295.572784,804.065491 295.348572,795.458801 
	C318.077820,795.458801 340.799316,795.458801 364.203033,795.458801 
	C363.764984,788.926697 363.751312,783.090576 362.917542,777.374146 
	C360.652771,761.846436 353.011444,750.195740 337.397644,745.453918 
	C324.556366,741.554138 311.510132,741.457214 298.627380,745.676086 
	C286.489929,749.650940 278.786652,758.044128 275.152740,770.132812 
	C272.124817,780.205688 272.204498,790.473206 274.011108,800.769836 
	C276.351532,814.109070 282.916565,824.464539 295.789825,829.627991 
	C311.305267,835.851135 327.201691,835.615173 342.411530,829.024170 
	C353.496277,824.220642 360.193390,815.190552 361.692993,802.360657 
	C354.926331,802.360657 348.606598,802.265747 342.294159,802.437561 
	C340.966278,802.473633 339.200897,803.127319 338.429840,804.115173 
	C334.550018,809.085693 329.576385,811.469299 322.377716,811.355774 
M737.605286,789.652954 
	C737.407837,786.501953 737.237610,783.348938 737.008423,780.200195 
	C735.710388,762.368774 725.568665,749.264099 709.082764,744.858704 
	C697.131165,741.664917 685.071899,741.814941 673.149170,745.416443 
	C660.092712,749.360352 651.875793,758.203918 648.481262,771.158997 
	C645.080933,784.136108 645.470825,797.229980 650.145630,809.910339 
	C653.451416,818.877014 659.614319,825.660461 668.460999,829.313293 
	C683.373474,835.470459 698.606323,835.346313 713.742188,829.994080 
	C725.885071,825.700195 734.610168,814.356995 734.855652,802.442566 
	C728.261658,802.442566 721.654968,802.292969 715.065857,802.566101 
	C713.713501,802.622192 712.494568,804.384399 711.096680,805.144104 
	C707.276306,807.220398 703.584656,810.093628 699.485901,810.953308 
	C694.532532,811.992249 689.190979,811.613770 684.057556,811.261902 
	C675.658691,810.686157 669.534485,804.343384 668.923767,795.628479 
	C670.749573,795.628479 672.536133,795.628479 674.322693,795.628479 
	C693.647339,795.628418 712.972961,795.527405 732.295837,795.711243 
	C736.288574,795.749207 738.364502,794.856079 737.605286,789.652954 
M265.004272,808.308716 
	C266.034241,797.639038 263.040833,788.455078 253.083008,783.568665 
	C246.629333,780.401733 239.301453,778.918762 232.263657,777.067627 
	C225.384140,775.257996 218.311386,774.164368 211.476898,772.217590 
	C210.072144,771.817505 208.557068,769.023804 208.577499,767.351440 
	C208.591782,766.182129 211.095413,764.107178 212.553238,764.047424 
	C220.495056,763.721924 228.464172,763.704712 236.409439,763.987549 
	C239.845886,764.109985 242.887619,765.477905 243.269730,769.832153 
	C243.343033,770.667358 244.874298,772.005798 245.768814,772.035645 
	C251.705032,772.233459 257.651001,772.138184 263.541718,772.138184 
	C264.475800,759.921265 258.232452,749.742615 247.184952,746.028564 
	C233.274094,741.352051 218.987793,741.469421 204.918289,745.026306 
	C193.904175,747.810791 188.760757,754.385498 187.967758,764.552979 
	C186.925201,777.920227 190.507507,785.328003 201.290115,790.264526 
	C206.061813,792.449097 211.298752,793.751953 216.440521,794.962219 
	C224.194382,796.787476 232.078339,798.055481 239.848557,799.817993 
	C243.041183,800.542114 244.934082,802.531860 244.435104,806.340210 
	C243.943069,810.095642 241.388672,810.923462 238.460480,811.045715 
	C232.311127,811.302307 226.150314,811.333069 219.993805,811.358337 
	C210.365891,811.397827 210.247131,811.281738 207.377869,802.801270 
	C200.938065,802.801270 194.552795,802.801270 188.210922,802.801270 
	C187.531006,816.850403 194.002502,826.898499 206.655914,831.040833 
	C218.825775,835.024780 231.261414,834.155273 243.632095,831.960693 
	C256.462830,829.684387 263.335968,822.260864 265.004272,808.308716 
M662.746094,517.195374 
	C663.271179,524.093994 665.566467,526.420227 672.428040,526.425415 
	C687.755188,526.437012 703.082764,526.341858 718.409546,526.214050 
	C725.951965,526.151184 728.883179,523.190674 728.845642,515.488220 
	C728.799438,506.004303 728.489014,496.521942 728.359802,487.037994 
	C728.282837,481.389374 728.615601,475.721313 728.261719,470.093567 
	C727.741028,461.811890 725.696777,460.074646 717.437134,460.051483 
	C702.607361,460.009857 687.777527,460.003479 672.947693,460.017761 
	C665.414917,460.025024 662.755066,462.681549 662.739685,470.274841 
	C662.708557,485.604492 662.737366,500.934296 662.746094,517.195374 
M728.205017,374.943604 
	C727.150146,369.493927 724.595947,367.033966 719.139038,366.993805 
	C703.311401,366.877289 687.481750,366.868134 671.654114,366.978180 
	C666.054626,367.017090 662.778992,370.496338 662.757690,376.140442 
	C662.697144,392.135406 662.685852,408.131042 662.760498,424.125885 
	C662.790833,430.623810 665.399780,433.109467 671.960754,433.121674 
	C687.620972,433.150848 703.281433,433.137360 718.941650,433.101166 
	C725.430786,433.086182 728.742920,429.755310 728.692383,423.315918 
	C728.568237,407.493774 728.403564,391.671967 728.205017,374.943604 
M562.353516,823.146362 
	C564.510437,824.678284 566.515503,826.509399 568.848755,827.693848 
	C584.958557,835.872009 601.628296,835.852783 618.102722,829.507751 
	C629.939087,824.948975 636.794800,815.701355 638.641174,802.384399 
	C631.724365,802.384399 625.109558,802.325745 618.497864,802.444763 
	C617.452637,802.463562 616.043457,802.993347 615.441162,803.777405 
	C606.571899,815.322754 594.337036,812.331848 583.333496,809.939087 
	C573.346191,807.767334 570.771667,798.458252 570.451355,789.122437 
	C569.992249,775.742188 576.246277,762.552856 593.270447,763.980347 
	C595.751160,764.188293 598.452942,763.420471 600.721741,764.142822 
	C605.175842,765.560974 609.428650,767.641479 613.695984,769.597961 
	C614.984070,770.188477 616.021790,771.977295 617.214233,772.017029 
	C624.253784,772.251831 631.305115,772.132690 638.641296,772.132690 
	C635.874756,759.932556 629.379150,751.623169 618.492554,747.000000 
	C607.276978,742.237183 595.542053,741.912659 583.696899,743.634338 
	C574.773560,744.931335 567.167053,748.749207 560.442139,755.028137 
	C546.403809,768.135620 545.487305,807.635681 562.353516,823.146362 
M636.176880,499.499939 
	C636.168213,489.183014 636.225586,478.865448 636.122986,468.549469 
	C636.071228,463.344849 633.330750,460.183289 628.323730,460.131805 
	C611.851807,459.962402 595.376465,459.965057 578.904175,460.103485 
	C573.871887,460.145752 571.016968,462.905945 570.956116,467.846039 
	C570.747131,484.816132 570.699646,501.789703 570.787964,518.760925 
	C570.812012,523.382935 574.765503,526.673462 579.369812,526.552307 
	C581.530273,526.495422 583.689758,526.296875 585.848877,526.308716 
	C599.157227,526.381897 612.465881,526.458801 625.773499,526.613281 
	C632.950317,526.696594 636.022705,523.793579 636.117859,516.474121 
	C636.187012,511.149994 636.159973,505.824615 636.176880,499.499939 
M612.498169,366.944885 
	C601.519043,366.951447 590.539612,366.907379 579.561035,366.987854 
	C574.716309,367.023346 570.895508,370.160065 570.847168,374.721008 
	C570.667419,391.685822 570.660767,408.654785 570.834961,425.619629 
	C570.885437,430.541962 574.945618,433.756409 579.758057,433.728058 
	C595.038208,433.638000 610.318787,433.603058 625.599243,433.595612 
	C632.513428,433.592255 636.160583,430.183258 636.171875,423.362427 
	C636.197449,407.891998 636.188538,392.421234 636.124756,376.950928 
	C636.096863,370.178619 632.854980,367.031219 625.973022,366.942352 
	C621.815002,366.888641 617.655640,366.938751 612.498169,366.944885 
M451.106689,773.384888 
	C448.360321,764.338074 445.678253,755.270691 442.787323,746.270264 
	C442.419983,745.126770 440.987823,743.540894 440.001953,743.506531 
	C433.102356,743.265686 426.190338,743.379089 419.383362,743.379089 
	C419.248169,744.437256 419.097290,744.788757 419.182556,745.068237 
	C427.791077,773.291504 436.441284,801.502075 445.002594,829.739563 
	C445.781250,832.307800 447.201935,832.949341 449.721649,832.919189 
	C460.052155,832.795349 470.387543,832.739014 480.715485,832.943054 
	C483.976349,833.007446 485.215118,831.876526 486.137177,828.789429 
	C491.224609,811.756409 496.610382,794.812744 501.846466,777.823914 
	C505.305176,766.601929 508.684143,755.355469 512.331238,743.355286 
	C505.386505,743.355286 499.114227,743.508362 492.854919,743.290039 
	C489.779083,743.182678 488.631561,744.294983 487.751923,747.234985 
	C481.746918,767.305664 475.541534,787.317200 469.230804,807.294067 
	C468.739014,808.850891 466.952240,809.998596 465.767303,811.336426 
	C464.406921,810.019775 462.337280,808.942078 461.800446,807.348083 
	C458.097534,796.352783 454.714508,785.249817 451.106689,773.384888 
M744.996948,806.500000 
	C744.996948,815.114441 744.996948,823.728943 744.996948,832.595215 
	C749.482544,832.595215 753.381226,832.595215 757.628540,832.595215 
	C757.801575,829.485168 757.960510,826.628906 758.151184,823.201599 
	C759.474487,824.222168 760.294434,824.749695 760.991272,825.407593 
	C775.492981,839.099548 807.605286,836.002930 819.494812,815.590820 
	C825.765259,804.825500 827.214539,793.220459 826.095947,781.000977 
	C823.441528,752.003235 799.290100,737.244385 772.789795,744.753662 
	C767.595154,746.225708 762.925903,749.551514 757.629395,752.215942 
	C757.629395,742.582886 757.629395,732.985535 757.629395,723.315674 
	C753.262695,723.315674 749.354797,723.315674 744.996948,723.315674 
	C744.996948,750.921204 744.996948,778.210632 744.996948,806.500000 
M1037.260010,828.892639 
	C1047.187012,823.309265 1053.407227,815.035767 1055.911011,803.831726 
	C1045.547363,802.146362 1045.016235,802.469116 1039.757690,810.732483 
	C1036.403687,816.002991 1031.884155,819.827881 1025.284668,820.068970 
	C1020.293701,820.251343 1015.287170,820.220276 1010.293884,820.071655 
	C1003.517029,819.869934 997.903198,817.209839 994.661194,811.056580 
	C991.603271,805.252747 990.414490,798.961304 991.193298,791.739319 
	C993.209290,791.739319 994.989136,791.739258 996.768921,791.739258 
	C1015.426880,791.739197 1034.084839,791.738159 1052.742798,791.740295 
	C1055.256836,791.740601 1058.219360,792.164246 1057.686035,788.183472 
	C1056.807129,781.623535 1056.356323,774.912415 1054.574097,768.589417 
	C1051.916382,759.160645 1046.195068,751.875244 1037.206543,747.138550 
	C1028.500122,742.550415 1019.239563,742.041565 1010.033630,743.280945 
	C996.422363,745.113281 986.310059,752.343994 981.202393,765.572754 
	C976.961243,776.557312 976.235291,787.919922 978.159363,799.425537 
	C979.692627,808.594055 982.904907,817.067444 989.960754,823.615967 
	C1001.646423,834.461548 1021.033691,836.794312 1037.260010,828.892639 
M841.529358,821.886780 
	C858.282104,838.636414 876.709534,835.654480 895.812073,826.792358 
	C895.945618,828.420410 896.105591,830.369873 896.276733,832.456055 
	C900.505493,832.456055 904.529480,832.456055 908.579956,832.456055 
	C908.579956,802.601685 908.579956,773.185242 908.579956,743.560669 
	C904.358154,743.560669 900.451721,743.560669 895.994324,743.560669 
	C895.994324,745.801514 895.994324,747.757446 895.994263,749.713379 
	C895.993591,766.544312 896.096008,783.376099 895.960938,800.205933 
	C895.844727,814.687195 889.505554,820.916260 875.202820,820.851440 
	C871.054993,820.832642 866.899841,820.580688 862.763794,820.242554 
	C855.410706,819.641418 850.816284,815.348022 848.878418,808.544983 
	C847.712463,804.451599 847.142395,800.065552 847.086792,795.800842 
	C846.882629,780.139038 847.014160,764.473022 846.994019,748.808594 
	C846.991821,747.062256 846.828064,745.316223 846.723389,743.257141 
	C844.160706,743.257141 842.152893,743.469299 840.205994,743.215088 
	C835.454651,742.594666 833.894775,744.330811 833.992188,749.254395 
	C834.301880,764.912720 833.942505,780.583374 834.170837,796.244507 
	C834.300232,805.122803 835.748352,813.805054 841.529358,821.886780 
M371.126221,779.500000 
	C371.126221,797.096497 371.126221,814.692993 371.126221,832.515015 
	C378.905121,832.515015 386.096161,832.515015 393.653931,832.515015 
	C393.653931,817.034729 393.581696,801.909790 393.701233,786.786377 
	C393.733887,782.656738 393.992523,778.464417 394.767792,774.419800 
	C395.984680,768.071411 399.316711,765.381409 405.727905,764.885376 
	C409.135895,764.621704 412.558075,764.541687 416.052429,764.375000 
	C416.052429,756.906799 416.052429,749.988831 416.052429,741.511353 
	C408.229309,743.727051 401.074799,745.753296 393.897644,747.786011 
	C393.744934,746.974548 393.424408,745.271179 393.134552,743.730957 
	C385.672302,743.730957 378.592896,743.730957 371.126373,743.730957 
	C371.126373,755.574402 371.126373,767.037231 371.126221,779.500000 
M520.865845,832.691589 
	C527.792786,832.691589 534.719666,832.691589 541.891357,832.691589 
	C541.891357,802.779846 541.891357,773.373596 541.891357,743.821106 
	C534.508362,743.821106 527.332031,743.821106 519.848633,743.821106 
	C519.848633,754.407898 519.816650,764.548523 519.855469,774.688904 
	C519.928772,793.824341 520.042847,812.959717 520.865845,832.691589 
M929.119629,792.500000 
	C929.119629,780.744507 929.119629,768.989014 929.119629,756.664551 
	C936.092224,756.664551 942.337708,756.664551 948.837097,756.664551 
	C948.837097,752.014343 948.837097,747.946167 948.837097,743.128723 
	C942.212952,743.128723 935.854187,743.128723 928.883606,743.128723 
	C928.883606,736.009766 928.883606,729.623230 928.883606,723.363281 
	C924.331055,723.363281 920.424683,723.363281 916.651245,723.363281 
	C916.413086,724.032349 916.210266,724.336304 916.209839,724.640503 
	C916.171204,753.765381 916.032715,782.890991 916.218079,812.014526 
	C916.256531,818.056946 917.997864,823.894409 922.945068,828.113525 
	C930.637695,834.674072 939.757141,832.552368 948.686035,832.813416 
	C948.686035,828.237122 948.686035,824.213867 948.686035,820.310730 
	C947.935181,820.112793 947.617920,819.959717 947.298828,819.955750 
	C944.137390,819.916504 940.975586,819.916138 937.814209,819.877380 
	C930.625122,819.789246 929.174011,818.320984 929.127197,810.975830 
	C929.090088,805.150757 929.119812,799.325195 929.119629,792.500000 
M1100.353027,742.951843 
	C1092.127441,742.672791 1084.765625,745.090393 1078.224365,750.614075 
	C1078.028198,747.940308 1077.873657,745.835266 1077.717896,743.712891 
	C1073.336548,743.712891 1069.309204,743.712891 1065.299438,743.712891 
	C1065.299438,773.555664 1065.299438,802.950012 1065.299438,832.479736 
	C1069.636597,832.479736 1073.667236,832.479736 1078.000000,832.479736 
	C1078.000000,830.256592 1078.000000,828.439758 1078.000000,826.622925 
	C1078.000122,809.477966 1077.800049,792.329895 1078.070190,775.189209 
	C1078.253174,763.581970 1082.925903,754.965271 1097.065552,755.710083 
	C1098.636108,755.792786 1100.224609,755.536377 1102.498291,755.393677 
	C1102.041138,750.902649 1101.647095,747.032166 1100.353027,742.951843 
M969.863464,771.500000 
	C969.863464,755.418091 969.863464,739.336182 969.863464,723.333618 
	C965.108643,723.333618 961.196472,723.333618 957.250000,723.333618 
	C957.250000,759.936157 957.250000,796.162842 957.250000,832.610718 
	C961.505554,832.610718 965.413635,832.610718 969.863281,832.610718 
	C969.863281,812.391785 969.863281,792.445862 969.863464,771.500000 
M527.564026,722.958984 
	C525.144043,722.958984 522.724060,722.958984 520.265625,722.958984 
	C520.265625,727.918152 520.265625,732.137512 520.265625,736.465942 
	C527.643921,736.465942 534.672546,736.465942 541.728149,736.465942 
	C541.728149,731.851746 541.728149,727.625916 541.728149,722.958923 
	C537.107971,722.958923 532.824707,722.958923 527.564026,722.958984 
z"/>
<path fill="#89BD44" opacity="1.000000" stroke="none" 
	d="
M885.121277,358.885254 
	C892.377686,365.287872 899.656372,371.166931 906.256653,377.728516 
	C917.795654,389.200012 912.473206,409.648224 896.883240,414.007660 
	C888.469543,416.360352 880.830994,414.351227 874.163269,408.451935 
	C842.993103,380.874115 811.794067,353.328644 780.534790,325.851898 
	C746.025330,295.518280 711.436035,265.275635 676.888550,234.985321 
	C668.626099,227.741058 660.313843,220.550369 652.188721,213.154648 
	C649.529968,210.734497 647.701477,210.806808 644.999939,213.178543 
	C603.468506,249.639755 561.804199,285.949738 520.274414,322.412811 
	C493.257263,346.133820 466.388794,370.024506 439.498291,393.889404 
	C434.146820,398.638824 428.980591,403.598053 423.759033,408.492615 
	C414.569672,417.106476 400.627197,417.057129 392.279633,408.353790 
	C383.792358,399.504913 383.886810,384.873810 393.156464,376.456329 
	C409.795746,361.346771 426.635834,346.446228 443.756195,331.886505 
	C448.327148,327.999146 449.865631,324.035095 449.839081,318.225616 
	C449.644165,275.582642 449.510895,232.936066 449.886902,190.295273 
	C450.060028,170.663925 465.872101,155.327209 485.529663,154.944046 
	C501.518311,154.632385 517.523010,154.655075 533.511841,154.971344 
	C551.819580,155.333511 566.971680,169.701279 568.179626,187.877457 
	C568.797058,197.168823 568.472961,206.522369 568.593567,215.847565 
	C568.613831,217.417282 568.731384,218.985764 568.862183,221.814377 
	C576.188965,215.272705 582.602722,209.581055 588.978210,203.846863 
	C602.718689,191.488495 616.380310,179.041702 630.186768,166.757736 
	C641.517334,156.676666 655.446411,156.464798 666.833008,166.442764 
	C690.370361,187.068329 713.698730,207.932053 737.174927,228.627594 
	C769.395203,257.031494 801.681274,285.360718 833.922607,313.740753 
	C850.912659,328.696136 867.867432,343.691620 885.121277,358.885254 
M521.333984,198.926025 
	C513.515198,198.907059 505.687469,199.105026 497.881287,198.782288 
	C493.652893,198.607483 492.586853,200.075760 492.610840,204.165283 
	C492.764893,230.449036 492.661102,256.734283 492.663574,283.019012 
	C492.663696,284.272797 492.868103,285.526550 493.020935,287.279785 
	C494.322754,286.685272 495.334839,286.467133 496.021149,285.872803 
	C505.572205,277.601837 515.117310,269.322510 524.536865,260.903168 
	C525.486267,260.054535 526.045105,258.285583 526.052673,256.939606 
	C526.154907,238.807007 526.081116,220.673431 526.177856,202.540771 
	C526.193481,199.605560 524.949890,198.666092 521.333984,198.926025 
z"/>
<path fill="#89BD44" opacity="1.000000" stroke="none" 
	d="
M449.506866,494.999847 
	C449.497711,474.172699 449.377777,453.844238 449.626923,433.520294 
	C449.656647,431.094604 451.135254,428.116577 452.910400,426.389740 
	C458.150146,421.292725 463.871613,416.690430 469.412720,411.903931 
	C473.651886,408.242126 478.535645,407.852448 483.432922,409.896576 
	C488.867126,412.164764 492.278534,416.321838 492.688812,422.449219 
	C492.833313,424.606781 492.773224,426.779358 492.772491,428.945099 
	C492.753418,484.761322 492.746552,540.577515 492.666016,596.393677 
	C492.661133,599.760315 492.738434,601.916199 497.283813,601.900879 
	C566.093262,601.669067 634.903320,601.607361 703.713196,601.526855 
	C735.699219,601.489380 767.685852,601.403076 799.670715,601.587280 
	C804.382812,601.614441 805.478943,600.091187 805.462708,595.611267 
	C805.262939,540.461792 805.248108,485.311676 805.186951,430.161743 
	C805.184570,427.995758 805.116150,425.826141 805.215576,423.664520 
	C805.496704,417.552521 807.856445,412.690155 813.766174,410.146362 
	C819.719666,407.583740 825.163391,408.594818 830.039062,412.756561 
	C832.950745,415.241852 835.473083,418.335724 838.701965,420.267670 
	C847.574890,425.576569 848.983337,433.284882 848.899170,443.019531 
	C848.449585,495.000061 848.714417,546.986511 848.639771,598.970764 
	C848.626526,608.193848 847.505615,617.203918 842.210144,625.235413 
	C833.404297,638.591003 821.321289,645.922241 805.126038,645.940430 
	C782.133057,645.966309 759.140015,645.971680 736.147034,645.975281 
	C655.838013,645.987915 575.528992,646.020020 495.219971,645.992737 
	C467.134186,645.983154 449.650269,628.637085 449.535431,600.468933 
	C449.392822,565.479736 449.505066,530.489624 449.506866,494.999847 
z"/>
<path fill="#89BD46" opacity="1.000000" stroke="none" 
	d="
M322.854126,811.353882 
	C329.576385,811.469299 334.550018,809.085693 338.429840,804.115173 
	C339.200897,803.127319 340.966278,802.473633 342.294159,802.437561 
	C348.606598,802.265747 354.926331,802.360657 361.692993,802.360657 
	C360.193390,815.190552 353.496277,824.220642 342.411530,829.024170 
	C327.201691,835.615173 311.305267,835.851135 295.789825,829.627991 
	C282.916565,824.464539 276.351532,814.109070 274.011108,800.769836 
	C272.204498,790.473206 272.124817,780.205688 275.152740,770.132812 
	C278.786652,758.044128 286.489929,749.650940 298.627380,745.676086 
	C311.510132,741.457214 324.556366,741.554138 337.397644,745.453918 
	C353.011444,750.195740 360.652771,761.846436 362.917542,777.374146 
	C363.751312,783.090576 363.764984,788.926697 364.203033,795.458801 
	C340.799316,795.458801 318.077820,795.458801 295.348572,795.458801 
	C295.572784,804.065491 302.698486,810.882385 311.381500,811.313171 
	C315.038605,811.494629 318.711823,811.351379 322.854126,811.353882 
M321.378967,763.977722 
	C318.391785,763.991882 315.402374,763.938110 312.417847,764.034180 
	C305.965912,764.241699 296.706726,769.136230 296.410126,776.212463 
	C311.156799,776.212463 325.894470,776.212463 341.075287,776.212463 
	C337.128754,767.784485 330.985260,763.924561 321.378967,763.977722 
z"/>
<path fill="#87BC43" opacity="1.000000" stroke="none" 
	d="
M737.614319,790.090332 
	C738.364502,794.856079 736.288574,795.749207 732.295837,795.711243 
	C712.972961,795.527405 693.647339,795.628418 674.322693,795.628479 
	C672.536133,795.628479 670.749573,795.628479 668.923767,795.628479 
	C669.534485,804.343384 675.658691,810.686157 684.057556,811.261902 
	C689.190979,811.613770 694.532532,811.992249 699.485901,810.953308 
	C703.584656,810.093628 707.276306,807.220398 711.096680,805.144104 
	C712.494568,804.384399 713.713501,802.622192 715.065857,802.566101 
	C721.654968,802.292969 728.261658,802.442566 734.855652,802.442566 
	C734.610168,814.356995 725.885071,825.700195 713.742188,829.994080 
	C698.606323,835.346313 683.373474,835.470459 668.460999,829.313293 
	C659.614319,825.660461 653.451416,818.877014 650.145630,809.910339 
	C645.470825,797.229980 645.080933,784.136108 648.481262,771.158997 
	C651.875793,758.203918 660.092712,749.360352 673.149170,745.416443 
	C685.071899,741.814941 697.131165,741.664917 709.082764,744.858704 
	C725.568665,749.264099 735.710388,762.368774 737.008423,780.200195 
	C737.237610,783.348938 737.407837,786.501953 737.614319,790.090332 
M705.402832,776.676208 
	C708.302429,776.676208 711.201965,776.676208 714.101562,776.676208 
	C714.428894,776.101624 714.756287,775.527100 715.083618,774.952515 
	C712.157959,772.073608 709.697510,768.295044 706.214539,766.493958 
	C697.687500,762.084778 688.375427,763.127136 679.492432,765.384399 
	C674.389343,766.681152 671.015137,770.802429 669.278870,776.675842 
	C681.294800,776.675842 692.864014,776.675842 705.402832,776.676208 
z"/>
<path fill="#87BC43" opacity="1.000000" stroke="none" 
	d="
M264.995361,808.767700 
	C263.335968,822.260864 256.462830,829.684387 243.632095,831.960693 
	C231.261414,834.155273 218.825775,835.024780 206.655914,831.040833 
	C194.002502,826.898499 187.531006,816.850403 188.210922,802.801270 
	C194.552795,802.801270 200.938065,802.801270 207.377869,802.801270 
	C210.247131,811.281738 210.365891,811.397827 219.993805,811.358337 
	C226.150314,811.333069 232.311127,811.302307 238.460480,811.045715 
	C241.388672,810.923462 243.943069,810.095642 244.435104,806.340210 
	C244.934082,802.531860 243.041183,800.542114 239.848557,799.817993 
	C232.078339,798.055481 224.194382,796.787476 216.440521,794.962219 
	C211.298752,793.751953 206.061813,792.449097 201.290115,790.264526 
	C190.507507,785.328003 186.925201,777.920227 187.967758,764.552979 
	C188.760757,754.385498 193.904175,747.810791 204.918289,745.026306 
	C218.987793,741.469421 233.274094,741.352051 247.184952,746.028564 
	C258.232452,749.742615 264.475800,759.921265 263.541718,772.138184 
	C257.651001,772.138184 251.705032,772.233459 245.768814,772.035645 
	C244.874298,772.005798 243.343033,770.667358 243.269730,769.832153 
	C242.887619,765.477905 239.845886,764.109985 236.409439,763.987549 
	C228.464172,763.704712 220.495056,763.721924 212.553238,764.047424 
	C211.095413,764.107178 208.591782,766.182129 208.577499,767.351440 
	C208.557068,769.023804 210.072144,771.817505 211.476898,772.217590 
	C218.311386,774.164368 225.384140,775.257996 232.263657,777.067627 
	C239.301453,778.918762 246.629333,780.401733 253.083008,783.568665 
	C263.040833,788.455078 266.034241,797.639038 264.995361,808.767700 
z"/>
<path fill="#89BC43" opacity="1.000000" stroke="none" 
	d="
M662.743774,516.729736 
	C662.737366,500.934296 662.708557,485.604492 662.739685,470.274841 
	C662.755066,462.681549 665.414917,460.025024 672.947693,460.017761 
	C687.777527,460.003479 702.607361,460.009857 717.437134,460.051483 
	C725.696777,460.074646 727.741028,461.811890 728.261719,470.093567 
	C728.615601,475.721313 728.282837,481.389374 728.359802,487.037994 
	C728.489014,496.521942 728.799438,506.004303 728.845642,515.488220 
	C728.883179,523.190674 725.951965,526.151184 718.409546,526.214050 
	C703.082764,526.341858 687.755188,526.437012 672.428040,526.425415 
	C665.566467,526.420227 663.271179,524.093994 662.743774,516.729736 
z"/>
<path fill="#89BC43" opacity="1.000000" stroke="none" 
	d="
M728.230103,375.396790 
	C728.403564,391.671967 728.568237,407.493774 728.692383,423.315918 
	C728.742920,429.755310 725.430786,433.086182 718.941650,433.101166 
	C703.281433,433.137360 687.620972,433.150848 671.960754,433.121674 
	C665.399780,433.109467 662.790833,430.623810 662.760498,424.125885 
	C662.685852,408.131042 662.697144,392.135406 662.757690,376.140442 
	C662.778992,370.496338 666.054626,367.017090 671.654114,366.978180 
	C687.481750,366.868134 703.311401,366.877289 719.139038,366.993805 
	C724.595947,367.033966 727.150146,369.493927 728.230103,375.396790 
z"/>
<path fill="#89BD46" opacity="1.000000" stroke="none" 
	d="
M562.063965,822.939331 
	C545.487305,807.635681 546.403809,768.135620 560.442139,755.028137 
	C567.167053,748.749207 574.773560,744.931335 583.696899,743.634338 
	C595.542053,741.912659 607.276978,742.237183 618.492554,747.000000 
	C629.379150,751.623169 635.874756,759.932556 638.641296,772.132690 
	C631.305115,772.132690 624.253784,772.251831 617.214233,772.017029 
	C616.021790,771.977295 614.984070,770.188477 613.695984,769.597961 
	C609.428650,767.641479 605.175842,765.560974 600.721741,764.142822 
	C598.452942,763.420471 595.751160,764.188293 593.270447,763.980347 
	C576.246277,762.552856 569.992249,775.742188 570.451355,789.122437 
	C570.771667,798.458252 573.346191,807.767334 583.333496,809.939087 
	C594.337036,812.331848 606.571899,815.322754 615.441162,803.777405 
	C616.043457,802.993347 617.452637,802.463562 618.497864,802.444763 
	C625.109558,802.325745 631.724365,802.384399 638.641174,802.384399 
	C636.794800,815.701355 629.939087,824.948975 618.102722,829.507751 
	C601.628296,835.852783 584.958557,835.872009 568.848755,827.693848 
	C566.515503,826.509399 564.510437,824.678284 562.063965,822.939331 
z"/>
<path fill="#88BC43" opacity="1.000000" stroke="none" 
	d="
M636.176392,499.999878 
	C636.159973,505.824615 636.187012,511.149994 636.117859,516.474121 
	C636.022705,523.793579 632.950317,526.696594 625.773499,526.613281 
	C612.465881,526.458801 599.157227,526.381897 585.848877,526.308716 
	C583.689758,526.296875 581.530273,526.495422 579.369812,526.552307 
	C574.765503,526.673462 570.812012,523.382935 570.787964,518.760925 
	C570.699646,501.789703 570.747131,484.816132 570.956116,467.846039 
	C571.016968,462.905945 573.871887,460.145752 578.904175,460.103485 
	C595.376465,459.965057 611.851807,459.962402 628.323730,460.131805 
	C633.330750,460.183289 636.071228,463.344849 636.122986,468.549469 
	C636.225586,478.865448 636.168213,489.183014 636.176392,499.999878 
z"/>
<path fill="#88BC43" opacity="1.000000" stroke="none" 
	d="
M612.997559,366.943542 
	C617.655640,366.938751 621.815002,366.888641 625.973022,366.942352 
	C632.854980,367.031219 636.096863,370.178619 636.124756,376.950928 
	C636.188538,392.421234 636.197449,407.891998 636.171875,423.362427 
	C636.160583,430.183258 632.513428,433.592255 625.599243,433.595612 
	C610.318787,433.603058 595.038208,433.638000 579.758057,433.728058 
	C574.945618,433.756409 570.885437,430.541962 570.834961,425.619629 
	C570.660767,408.654785 570.667419,391.685822 570.847168,374.721008 
	C570.895508,370.160065 574.716309,367.023346 579.561035,366.987854 
	C590.539612,366.907379 601.519043,366.951447 612.997559,366.943542 
z"/>
<path fill="#8ABD46" opacity="1.000000" stroke="none" 
	d="
M451.167664,773.783203 
	C454.714508,785.249817 458.097534,796.352783 461.800446,807.348083 
	C462.337280,808.942078 464.406921,810.019775 465.767334,811.336426 
	C466.952240,809.998596 468.739014,808.850891 469.230804,807.294067 
	C475.541534,787.317200 481.746918,767.305664 487.751923,747.234985 
	C488.631561,744.294983 489.779083,743.182678 492.854919,743.290039 
	C499.114227,743.508362 505.386505,743.355286 512.331238,743.355286 
	C508.684143,755.355469 505.305176,766.601929 501.846466,777.823914 
	C496.610382,794.812744 491.224609,811.756409 486.137177,828.789429 
	C485.215118,831.876526 483.976349,833.007446 480.715485,832.943054 
	C470.387543,832.739014 460.052155,832.795349 449.721649,832.919189 
	C447.201935,832.949341 445.781250,832.307800 445.002594,829.739563 
	C436.441284,801.502075 427.791077,773.291504 419.182556,745.068237 
	C419.097290,744.788757 419.248169,744.437256 419.383362,743.379089 
	C426.190338,743.379089 433.102356,743.265686 440.001953,743.506531 
	C440.987823,743.540894 442.419983,745.126770 442.787323,746.270264 
	C445.678253,755.270691 448.360321,764.338074 451.167664,773.783203 
z"/>
<path fill="#DDA075" opacity="1.000000" stroke="none" 
	d="
M744.996948,806.000000 
	C744.996948,778.210632 744.996948,750.921204 744.996948,723.315674 
	C749.354797,723.315674 753.262695,723.315674 757.629395,723.315674 
	C757.629395,732.985535 757.629395,742.582886 757.629395,752.215942 
	C762.925903,749.551514 767.595154,746.225708 772.789795,744.753662 
	C799.290100,737.244385 823.441528,752.003235 826.095947,781.000977 
	C827.214539,793.220459 825.765259,804.825500 819.494812,815.590820 
	C807.605286,836.002930 775.492981,839.099548 760.991272,825.407593 
	C760.294434,824.749695 759.474487,824.222168 758.151184,823.201599 
	C757.960510,826.628906 757.801575,829.485168 757.628540,832.595215 
	C753.381226,832.595215 749.482544,832.595215 744.996948,832.595215 
	C744.996948,823.728943 744.996948,815.114441 744.996948,806.000000 
M757.904114,780.610291 
	C757.937561,786.595764 757.777771,792.589844 758.043396,798.565002 
	C758.657715,812.383728 766.595276,819.942078 780.270447,819.999207 
	C782.764709,820.009644 785.259094,820.003052 787.753418,820.000366 
	C800.141479,819.986816 807.036377,815.409851 811.230957,803.914246 
	C812.469055,800.521118 813.673218,796.741821 813.411438,793.250610 
	C812.811462,785.249756 812.405396,776.949341 809.908630,769.439453 
	C805.663269,756.669861 794.610168,754.934143 782.735535,755.191345 
	C766.308838,755.547241 758.363403,763.165588 757.904114,780.610291 
z"/>
<path fill="#DDA076" opacity="1.000000" stroke="none" 
	d="
M1036.914673,829.042969 
	C1021.033691,836.794312 1001.646423,834.461548 989.960754,823.615967 
	C982.904907,817.067444 979.692627,808.594055 978.159363,799.425537 
	C976.235291,787.919922 976.961243,776.557312 981.202393,765.572754 
	C986.310059,752.343994 996.422363,745.113281 1010.033630,743.280945 
	C1019.239563,742.041565 1028.500122,742.550415 1037.206543,747.138550 
	C1046.195068,751.875244 1051.916382,759.160645 1054.574097,768.589417 
	C1056.356323,774.912415 1056.807129,781.623535 1057.686035,788.183472 
	C1058.219360,792.164246 1055.256836,791.740601 1052.742798,791.740295 
	C1034.084839,791.738159 1015.426880,791.739197 996.768921,791.739258 
	C994.989136,791.739258 993.209290,791.739319 991.193298,791.739319 
	C990.414490,798.961304 991.603271,805.252747 994.661194,811.056580 
	C997.903198,817.209839 1003.517029,819.869934 1010.293884,820.071655 
	C1015.287170,820.220276 1020.293701,820.251343 1025.284668,820.068970 
	C1031.884155,819.827881 1036.403687,816.002991 1039.757690,810.732483 
	C1045.016235,802.469116 1045.547363,802.146362 1055.911011,803.831726 
	C1053.407227,815.035767 1047.187012,823.309265 1036.914673,829.042969 
M991.596985,773.275818 
	C991.412659,775.024902 991.228333,776.773987 991.018677,778.763306 
	C1008.875793,778.763306 1026.209229,778.763306 1043.571167,778.763306 
	C1042.201782,762.941284 1036.922607,756.909729 1022.892090,755.423584 
	C1018.970032,755.008179 1014.948914,755.487122 1010.974915,755.610779 
	C999.946228,755.953857 994.216370,762.309692 991.596985,773.275818 
z"/>
<path fill="#DDA176" opacity="1.000000" stroke="none" 
	d="
M841.290039,821.615967 
	C835.748352,813.805054 834.300232,805.122803 834.170837,796.244507 
	C833.942505,780.583374 834.301880,764.912720 833.992188,749.254395 
	C833.894775,744.330811 835.454651,742.594666 840.205994,743.215088 
	C842.152893,743.469299 844.160706,743.257141 846.723389,743.257141 
	C846.828064,745.316223 846.991821,747.062256 846.994019,748.808594 
	C847.014160,764.473022 846.882629,780.139038 847.086792,795.800842 
	C847.142395,800.065552 847.712463,804.451599 848.878418,808.544983 
	C850.816284,815.348022 855.410706,819.641418 862.763794,820.242554 
	C866.899841,820.580688 871.054993,820.832642 875.202820,820.851440 
	C889.505554,820.916260 895.844727,814.687195 895.960938,800.205933 
	C896.096008,783.376099 895.993591,766.544312 895.994263,749.713379 
	C895.994324,747.757446 895.994324,745.801514 895.994324,743.560669 
	C900.451721,743.560669 904.358154,743.560669 908.579956,743.560669 
	C908.579956,773.185242 908.579956,802.601685 908.579956,832.456055 
	C904.529480,832.456055 900.505493,832.456055 896.276733,832.456055 
	C896.105591,830.369873 895.945618,828.420410 895.812073,826.792358 
	C876.709534,835.654480 858.282104,838.636414 841.290039,821.615967 
z"/>
<path fill="#8BBE48" opacity="1.000000" stroke="none" 
	d="
M371.126282,779.000000 
	C371.126373,767.037231 371.126373,755.574402 371.126373,743.730957 
	C378.592896,743.730957 385.672302,743.730957 393.134552,743.730957 
	C393.424408,745.271179 393.744934,746.974548 393.897644,747.786011 
	C401.074799,745.753296 408.229309,743.727051 416.052429,741.511353 
	C416.052429,749.988831 416.052429,756.906799 416.052429,764.375000 
	C412.558075,764.541687 409.135895,764.621704 405.727905,764.885376 
	C399.316711,765.381409 395.984680,768.071411 394.767792,774.419800 
	C393.992523,778.464417 393.733887,782.656738 393.701233,786.786377 
	C393.581696,801.909790 393.653931,817.034729 393.653931,832.515015 
	C386.096161,832.515015 378.905121,832.515015 371.126221,832.515015 
	C371.126221,814.692993 371.126221,797.096497 371.126282,779.000000 
z"/>
<path fill="#87BC43" opacity="1.000000" stroke="none" 
	d="
M520.502930,832.393311 
	C520.042847,812.959717 519.928772,793.824341 519.855469,774.688904 
	C519.816650,764.548523 519.848633,754.407898 519.848633,743.821106 
	C527.332031,743.821106 534.508362,743.821106 541.891357,743.821106 
	C541.891357,773.373596 541.891357,802.779846 541.891357,832.691589 
	C534.719666,832.691589 527.792786,832.691589 520.502930,832.393311 
z"/>
<path fill="#DDA076" opacity="1.000000" stroke="none" 
	d="
M929.119751,792.999939 
	C929.119812,799.325195 929.090088,805.150757 929.127197,810.975830 
	C929.174011,818.320984 930.625122,819.789246 937.814209,819.877380 
	C940.975586,819.916138 944.137390,819.916504 947.298828,819.955750 
	C947.617920,819.959717 947.935181,820.112793 948.686035,820.310730 
	C948.686035,824.213867 948.686035,828.237122 948.686035,832.813416 
	C939.757141,832.552368 930.637695,834.674072 922.945068,828.113525 
	C917.997864,823.894409 916.256531,818.056946 916.218079,812.014526 
	C916.032715,782.890991 916.171204,753.765381 916.209839,724.640503 
	C916.210266,724.336304 916.413086,724.032349 916.651245,723.363281 
	C920.424683,723.363281 924.331055,723.363281 928.883606,723.363281 
	C928.883606,729.623230 928.883606,736.009766 928.883606,743.128723 
	C935.854187,743.128723 942.212952,743.128723 948.837097,743.128723 
	C948.837097,747.946167 948.837097,752.014343 948.837097,756.664551 
	C942.337708,756.664551 936.092224,756.664551 929.119629,756.664551 
	C929.119629,768.989014 929.119629,780.744507 929.119751,792.999939 
z"/>
<path fill="#DD9F75" opacity="1.000000" stroke="none" 
	d="
M1100.802979,743.056763 
	C1101.647095,747.032166 1102.041138,750.902649 1102.498291,755.393677 
	C1100.224609,755.536377 1098.636108,755.792786 1097.065552,755.710083 
	C1082.925903,754.965271 1078.253174,763.581970 1078.070190,775.189209 
	C1077.800049,792.329895 1078.000122,809.477966 1078.000000,826.622925 
	C1078.000000,828.439758 1078.000000,830.256592 1078.000000,832.479736 
	C1073.667236,832.479736 1069.636597,832.479736 1065.299438,832.479736 
	C1065.299438,802.950012 1065.299438,773.555664 1065.299438,743.712891 
	C1069.309204,743.712891 1073.336548,743.712891 1077.717896,743.712891 
	C1077.873657,745.835266 1078.028198,747.940308 1078.224365,750.614075 
	C1084.765625,745.090393 1092.127441,742.672791 1100.802979,743.056763 
z"/>
<path fill="#DEA278" opacity="1.000000" stroke="none" 
	d="
M969.863403,772.000000 
	C969.863281,792.445862 969.863281,812.391785 969.863281,832.610718 
	C965.413635,832.610718 961.505554,832.610718 957.250000,832.610718 
	C957.250000,796.162842 957.250000,759.936157 957.250000,723.333618 
	C961.196472,723.333618 965.108643,723.333618 969.863464,723.333618 
	C969.863464,739.336182 969.863464,755.418091 969.863403,772.000000 
z"/>
<path fill="#DEA278" opacity="1.000000" stroke="none" 
	d="
M528.052734,722.958984 
	C532.824707,722.958923 537.107971,722.958923 541.728149,722.958923 
	C541.728149,727.625916 541.728149,731.851746 541.728149,736.465942 
	C534.672546,736.465942 527.643921,736.465942 520.265625,736.465942 
	C520.265625,732.137512 520.265625,727.918152 520.265625,722.958984 
	C522.724060,722.958984 525.144043,722.958984 528.052734,722.958984 
z"/>
<path fill="#FDFDFC" opacity="1.000000" stroke="none" 
	d="
M521.812256,198.927429 
	C524.949890,198.666092 526.193481,199.605560 526.177856,202.540771 
	C526.081116,220.673431 526.154907,238.807007 526.052673,256.939606 
	C526.045105,258.285583 525.486267,260.054535 524.536865,260.903168 
	C515.117310,269.322510 505.572205,277.601837 496.021149,285.872803 
	C495.334839,286.467133 494.322754,286.685272 493.020935,287.279785 
	C492.868103,285.526550 492.663696,284.272797 492.663574,283.019012 
	C492.661102,256.734283 492.764893,230.449036 492.610840,204.165283 
	C492.586853,200.075760 493.652893,198.607483 497.881287,198.782288 
	C505.687469,199.105026 513.515198,198.907059 521.812256,198.927429 
z"/>
<path fill="#F6FAF1" opacity="1.000000" stroke="none" 
	d="
M321.851013,763.977844 
	C330.985260,763.924561 337.128754,767.784485 341.075287,776.212463 
	C325.894470,776.212463 311.156799,776.212463 296.410126,776.212463 
	C296.706726,769.136230 305.965912,764.241699 312.417847,764.034180 
	C315.402374,763.938110 318.391785,763.991882 321.851013,763.977844 
z"/>
<path fill="#F6FAF1" opacity="1.000000" stroke="none" 
	d="
M704.918030,776.676025 
	C692.864014,776.675842 681.294800,776.675842 669.278870,776.675842 
	C671.015137,770.802429 674.389343,766.681152 679.492432,765.384399 
	C688.375427,763.127136 697.687500,762.084778 706.214539,766.493958 
	C709.697510,768.295044 712.157959,772.073608 715.083618,774.952515 
	C714.756287,775.527100 714.428894,776.101624 714.101562,776.676208 
	C711.201965,776.676208 708.302429,776.676208 704.918030,776.676025 
z"/>
<path fill="#FEFDFC" opacity="1.000000" stroke="none" 
	d="
M757.937134,780.130981 
	C758.363403,763.165588 766.308838,755.547241 782.735535,755.191345 
	C794.610168,754.934143 805.663269,756.669861 809.908630,769.439453 
	C812.405396,776.949341 812.811462,785.249756 813.411438,793.250610 
	C813.673218,796.741821 812.469055,800.521118 811.230957,803.914246 
	C807.036377,815.409851 800.141479,819.986816 787.753418,820.000366 
	C785.259094,820.003052 782.764709,820.009644 780.270447,819.999207 
	C766.595276,819.942078 758.657715,812.383728 758.043396,798.565002 
	C757.777771,792.589844 757.937561,786.595764 757.937134,780.130981 
z"/>
<path fill="#FDFCFC" opacity="1.000000" stroke="none" 
	d="
M991.744263,772.888123 
	C994.216370,762.309692 999.946228,755.953857 1010.974915,755.610779 
	C1014.948914,755.487122 1018.970032,755.008179 1022.892090,755.423584 
	C1036.922607,756.909729 1042.201782,762.941284 1043.571167,778.763306 
	C1026.209229,778.763306 1008.875793,778.763306 991.018677,778.763306 
	C991.228333,776.773987 991.412659,775.024902 991.744263,772.888123 
z"/>
</svg>