<svg width="1200" height="800" viewBox="0 0 1200 800" fill="none" xmlns="http://www.w3.org/2000/svg">
  <defs>
    <linearGradient id="crew_bg" x1="120" y1="80" x2="1080" y2="760" gradientUnits="userSpaceOnUse">
      <stop stop-color="#EAF6D6" />
      <stop offset="1" stop-color="#F7F9F8" />
    </linearGradient>
  </defs>
  <rect width="1200" height="800" rx="32" fill="url(#crew_bg)" />
  <rect x="120" y="470" width="960" height="220" rx="24" fill="#FFFFFF" stroke="#DCE2E7" />
  <rect x="180" y="530" width="220" height="100" rx="14" fill="#F2F5F7" />
  <rect x="435" y="530" width="220" height="100" rx="14" fill="#F2F5F7" />
  <rect x="690" y="530" width="220" height="100" rx="14" fill="#F2F5F7" />
  <rect x="160" y="180" width="280" height="220" rx="20" fill="#FFFFFF" stroke="#DCE2E7" />
  <rect x="470" y="140" width="290" height="260" rx="20" fill="#FFFFFF" stroke="#DCE2E7" />
  <rect x="790" y="200" width="250" height="200" rx="20" fill="#FFFFFF" stroke="#DCE2E7" />
  <circle cx="240" cy="260" r="46" fill="#78BE20" />
  <circle cx="560" cy="230" r="52" fill="#5F9918" />
  <circle cx="870" cy="270" r="44" fill="#D98C5F" />
  <path d="M228 260H252" stroke="white" stroke-width="8" stroke-linecap="round" />
  <path d="M560 212V248" stroke="white" stroke-width="8" stroke-linecap="round" />
  <path d="M542 230H578" stroke="white" stroke-width="8" stroke-linecap="round" />
  <path d="M858 270H882" stroke="white" stroke-width="8" stroke-linecap="round" />
</svg>
