<svg width="1200" height="800" viewBox="0 0 1200 800" fill="none" xmlns="http://www.w3.org/2000/svg">
  <rect width="1200" height="800" rx="24" fill="#F7F9F8"/>
  <rect x="70" y="70" width="1060" height="660" rx="22" fill="#FFFFFF" stroke="#DBE3EA"/>
  <rect x="120" y="140" width="960" height="90" rx="16" fill="#F1F4F7"/>
  <rect x="160" y="170" width="260" height="28" rx="8" fill="#DBE3EA"/>
  <rect x="800" y="160" width="220" height="44" rx="12" fill="#78BE20"/>
  <rect x="120" y="270" width="300" height="400" rx="16" fill="#F7FAF8" stroke="#DBE3EA"/>
  <rect x="460" y="270" width="620" height="110" rx="14" fill="#E4F3C7"/>
  <rect x="460" y="402" width="620" height="110" rx="14" fill="#F1F4F7"/>
  <rect x="460" y="534" width="620" height="110" rx="14" fill="#F1F4F7"/>
  <circle cx="520" cy="325" r="18" fill="#78BE20"/>
  <circle cx="520" cy="457" r="18" fill="#D98C5F"/>
  <circle cx="520" cy="589" r="18" fill="#708395"/>
  <rect x="560" y="308" width="220" height="22" rx="6" fill="#708395" fill-opacity="0.35"/>
  <rect x="560" y="440" width="220" height="22" rx="6" fill="#708395" fill-opacity="0.35"/>
  <rect x="560" y="572" width="220" height="22" rx="6" fill="#708395" fill-opacity="0.35"/>
</svg>
